<svg width="1200" height="720" viewBox="0 0 1200 720" xmlns="http://www.w3.org/2000/svg">
  <defs>
    <linearGradient id="bg" x1="0" y1="0" x2="1" y2="1">
      <stop offset="0%" stop-color="#0b1b33"/>
      <stop offset="100%" stop-color="#12345a"/>
    </linearGradient>
    <linearGradient id="accent" x1="0" y1="0" x2="1" y2="0">
      <stop offset="0%" stop-color="#c99b3b"/>
      <stop offset="100%" stop-color="#e0b450"/>
    </linearGradient>
  </defs>
  <rect width="1200" height="720" fill="url(#bg)"/>
  <rect x="80" y="120" width="1040" height="480" rx="32" fill="#0f223f" opacity="0.85" stroke="#1c3254" stroke-width="2"/>
  <rect x="120" y="180" width="360" height="320" rx="24" fill="#132a4a" stroke="#1f3a63"/>
  <rect x="530" y="180" width="520" height="320" rx="24" fill="#132a4a" stroke="#1f3a63"/>
  <text x="150" y="235" fill="#e8edf7" font-family="'Inter', sans-serif" font-size="28" font-weight="700">Briefly — Law Firm</text>
  <text x="150" y="275" fill="#9fb3d1" font-family="'Inter', sans-serif" font-size="16">Practice areas, attorney bios, and consultation flow.</text>
  <rect x="150" y="310" width="180" height="54" rx="12" fill="url(#accent)"/>
  <text x="180" y="345" fill="#0d1c33" font-family="'Inter', sans-serif" font-size="18" font-weight="700">Book Consultation</text>
  <rect x="360" y="320" width="60" height="60" rx="14" fill="#233a5c" stroke="#2f4f7a"/>
  <text x="378" y="355" fill="#e9f0ff" font-family="'Inter', sans-serif" font-size="20" font-weight="700">24</text>
  <rect x="560" y="210" width="440" height="120" rx="18" fill="#10233f" stroke="#1f3a63"/>
  <text x="590" y="255" fill="#e8edf7" font-family="'Inter', sans-serif" font-size="22" font-weight="700">Case Intake · Multi-step</text>
  <text x="590" y="285" fill="#9fb3d1" font-family="'Inter', sans-serif" font-size="16">Select practice area → describe case → contact info → confirm.</text>
  <g fill="#cfa654">
    <rect x="590" y="330" width="34" height="6" rx="3"/>
    <rect x="630" y="330" width="34" height="6" rx="3" opacity="0.7"/>
    <rect x="670" y="330" width="34" height="6" rx="3" opacity="0.5"/>
    <rect x="710" y="330" width="34" height="6" rx="3" opacity="0.35"/>
  </g>
  <circle cx="1010" cy="520" r="60" fill="#10233f" stroke="#cfa654" stroke-width="8"/>
  <path d="M1010 472 L1010 548 M980 510 L1040 510" stroke="#cfa654" stroke-width="12" stroke-linecap="round"/>
  <text x="150" y="410" fill="#7fb5ff" font-family="'Inter', sans-serif" font-size="14" letter-spacing="0.08em">NAVY · GOLD · TRUST</text>
</svg>
