<svg width="64" height="64" viewBox="0 0 64 64" fill="none" xmlns="http://www.w3.org/2000/svg">
  <rect x="2" y="2" width="60" height="60" rx="10" fill="#3178C6" stroke="#1E4F8F" stroke-width="2"/>
  <path d="M16 20H48V26H36V44H28V26H16V20Z" fill="white"/>
  <path d="M46.2 30.2C45.2 29.6 44.1 29.3 43 29.3C40.9 29.3 39.3 30.5 39.3 32.2C39.3 33.8 40.4 34.5 42.7 35.2L43.8 35.5C47.2 36.5 49 38.1 49 41.2C49 44.9 45.9 47 41.9 47C39.2 47 36.9 46.2 35.3 44.9L37.6 39.8C38.8 40.8 40.4 41.4 42 41.4C43.8 41.4 45 40.7 45 39.3C45 38.2 44.1 37.5 42.2 36.9L41.1 36.6C37.9 35.7 35.3 34.2 35.3 30.5C35.3 27 38.2 24.9 42.1 24.9C44.5 24.9 46.8 25.6 48.5 26.8L46.2 30.2Z" fill="white"/>
</svg>
